<svg xmlns="http://www.w3.org/2000/svg" width="512" height="512" fill="none" viewBox="0 0 512 512">
  <g clip-path="url(#a)">
    <path fill="#000" d="M0 192C0 124.794 0 91.19 13.08 65.521A120 120 0 0 1 65.52 13.08C91.191 0 124.794 0 192 0h128c67.206 0 100.809 0 126.479 13.08a120.004 120.004 0 0 1 52.442 52.441C512 91.191 512 124.794 512 192v128c0 67.206 0 100.809-13.079 126.479a120.007 120.007 0 0 1-52.442 52.442C420.809 512 387.206 512 320 512H192c-67.206 0-100.81 0-126.479-13.079a120.004 120.004 0 0 1-52.442-52.442C0 420.809 0 387.206 0 320V192Z"/>
    <path fill="#fff" fill-rule="evenodd" d="M409.159 287.986a325.056 325.056 0 0 0-99.722 54.694C271.791 374.017 244.978 428 244.978 428l-21.919-2.716s-10.165-62.674-43.294-105.543A330.695 330.695 0 0 0 101 249.128l5.061-23.148a233.815 233.815 0 0 0 94.326-50.139C242.217 139.156 263.592 83 263.592 83l22.63.543s11.043 57.995 41.83 104.457C353.986 226.942 411 264.379 411 264.379l-1.841 23.607Z" clip-rule="evenodd"/>
  </g>
  <defs>
    <clipPath id="a">
      <path fill="#fff" d="M0 0h512v512H0z"/>
    </clipPath>
  </defs>
</svg>
