<svg xmlns="http://www.w3.org/2000/svg" width="2080" height="512" fill="none" viewBox="0 0 2080 512">
  <path fill="#fff" d="M0 192C0 124.794 0 91.19 13.08 65.521A120 120 0 0 1 65.52 13.08C91.191 0 124.794 0 192 0h128c67.206 0 100.809 0 126.479 13.08a120.004 120.004 0 0 1 52.442 52.441C512 91.191 512 124.794 512 192v128c0 67.206 0 100.809-13.079 126.479a120.007 120.007 0 0 1-52.442 52.442C420.809 512 387.206 512 320 512H192c-67.206 0-100.81 0-126.479-13.079a120.004 120.004 0 0 1-52.442-52.442C0 420.809 0 387.206 0 320V192Z"/>
  <path fill="#000" fill-rule="evenodd" d="M409.159 287.986a325.056 325.056 0 0 0-99.722 54.694C271.791 374.017 244.978 428 244.978 428l-21.919-2.716s-10.165-62.674-43.294-105.543A330.695 330.695 0 0 0 101 249.128l5.061-23.148a233.815 233.815 0 0 0 94.326-50.139C242.217 139.156 263.592 83 263.592 83l22.63.543s11.043 57.995 41.83 104.457C353.986 226.942 411 264.379 411 264.379l-1.841 23.607Z" clip-rule="evenodd"/>
  <path fill="#fff" d="M676.733 354V156.182h70.511c15.39 0 28.14 2.801 38.25 8.403s17.676 13.265 22.699 22.989c5.023 9.659 7.534 20.542 7.534 32.648 0 12.17-2.543 23.117-7.63 32.84-5.023 9.66-12.622 17.322-22.796 22.989-10.11 5.602-22.828 8.404-38.153 8.404h-48.489v-25.307h45.784c9.724 0 17.612-1.675 23.665-5.023 6.053-3.413 10.496-8.049 13.33-13.909 2.833-5.86 4.25-12.525 4.25-19.994 0-7.47-1.417-14.103-4.25-19.898-2.834-5.796-7.309-10.335-13.427-13.619-6.053-3.285-14.038-4.927-23.954-4.927H706.58V354h-29.847Zm232.301 2.994c-13.909 0-26.047-3.187-36.415-9.562-10.367-6.375-18.416-15.294-24.147-26.756-5.731-11.462-8.597-24.856-8.597-40.182 0-15.39 2.866-28.848 8.597-40.375 5.731-11.526 13.78-20.477 24.147-26.852 10.368-6.375 22.506-9.562 36.415-9.562 13.909 0 26.047 3.187 36.415 9.562 10.367 6.375 18.417 15.326 24.148 26.852 5.731 11.527 8.596 24.985 8.596 40.375 0 15.326-2.865 28.72-8.596 40.182-5.731 11.462-13.781 20.381-24.148 26.756-10.368 6.375-22.506 9.562-36.415 9.562Zm.097-24.244c9.015 0 16.485-2.383 22.409-7.148 5.924-4.765 10.303-11.108 13.136-19.028 2.898-7.921 4.347-16.646 4.347-26.176 0-9.466-1.449-18.159-4.347-26.08-2.833-7.985-7.212-14.392-13.136-19.221-5.924-4.83-13.394-7.245-22.409-7.245-9.08 0-16.614 2.415-22.603 7.245-5.924 4.829-10.335 11.236-13.233 19.221-2.833 7.921-4.25 16.614-4.25 26.08 0 9.53 1.417 18.255 4.25 26.176 2.898 7.92 7.309 14.263 13.233 19.028 5.989 4.765 13.523 7.148 22.603 7.148Zm101.299 76.886v-204h28.2v24.052h2.42c1.67-3.091 4.09-6.665 7.24-10.722 3.16-4.057 7.54-7.599 13.14-10.625 5.6-3.091 13.01-4.636 22.22-4.636 11.97 0 22.66 3.026 32.06 9.079 9.41 6.053 16.78 14.778 22.12 26.176 5.41 11.398 8.12 25.114 8.12 41.148 0 16.034-2.67 29.782-8.02 41.244-5.34 11.398-12.69 20.188-22.02 26.37-9.34 6.117-20 9.176-31.97 9.176-9.02 0-16.39-1.514-22.12-4.54-5.67-3.027-10.11-6.568-13.33-10.625-3.22-4.057-5.7-7.663-7.44-10.818h-1.74v78.721h-28.88Zm28.3-129.818c0 10.432 1.51 19.576 4.54 27.432 3.03 7.856 7.41 14.006 13.14 18.449 5.73 4.379 12.75 6.568 21.05 6.568 8.63 0 15.85-2.286 21.64-6.858 5.8-4.636 10.18-10.915 13.14-18.835 3.02-7.921 4.54-16.839 4.54-26.756 0-9.788-1.48-18.577-4.45-26.369-2.89-7.792-7.27-13.941-13.13-18.449-5.8-4.508-13.04-6.761-21.74-6.761-8.37 0-15.45 2.157-21.25 6.471-5.73 4.315-10.07 10.335-13.04 18.063-2.96 7.727-4.44 16.742-4.44 27.045ZM1188.04 354h-31.68l71.18-197.818h34.49L1333.21 354h-31.68l-55.92-161.886h-1.55L1188.04 354Zm5.31-77.466h102.77v25.114h-102.77v-25.114Zm166.11 133.102v-204h28.21v24.052h2.41c1.68-3.091 4.09-6.665 7.25-10.722 3.15-4.057 7.53-7.599 13.13-10.625 5.6-3.091 13.01-4.636 22.22-4.636 11.97 0 22.66 3.026 32.07 9.079 9.4 6.053 16.77 14.778 22.12 26.176 5.4 11.398 8.11 25.114 8.11 41.148 0 16.034-2.67 29.782-8.02 41.244-5.34 11.398-12.68 20.188-22.02 26.37-9.34 6.117-20 9.176-31.97 9.176-9.02 0-16.39-1.514-22.12-4.54-5.67-3.027-10.11-6.568-13.33-10.625-3.22-4.057-5.7-7.663-7.44-10.818h-1.74v78.721h-28.88Zm28.3-129.818c0 10.432 1.52 19.576 4.54 27.432 3.03 7.856 7.41 14.006 13.14 18.449 5.73 4.379 12.75 6.568 21.06 6.568 8.62 0 15.84-2.286 21.63-6.858 5.8-4.636 10.18-10.915 13.14-18.835 3.02-7.921 4.54-16.839 4.54-26.756 0-9.788-1.48-18.577-4.44-26.369-2.9-7.792-7.28-13.941-13.14-18.449-5.8-4.508-13.04-6.761-21.73-6.761-8.38 0-15.46 2.157-21.25 6.471-5.74 4.315-10.08 10.335-13.04 18.063-2.97 7.727-4.45 16.742-4.45 27.045Zm139.58 129.818v-204h28.2v24.052h2.42c1.67-3.091 4.08-6.665 7.24-10.722 3.16-4.057 7.53-7.599 13.14-10.625 5.6-3.091 13-4.636 22.21-4.636 11.98 0 22.67 3.026 32.07 9.079 9.4 6.053 16.78 14.778 22.12 26.176 5.41 11.398 8.11 25.114 8.11 41.148 0 16.034-2.67 29.782-8.01 41.244-5.35 11.398-12.69 20.188-22.03 26.37-9.33 6.117-19.99 9.176-31.97 9.176-9.01 0-16.39-1.514-22.12-4.54-5.66-3.027-10.11-6.568-13.33-10.625-3.22-4.057-5.7-7.663-7.43-10.818h-1.74v78.721h-28.88Zm28.3-129.818c0 10.432 1.51 19.576 4.54 27.432 3.02 7.856 7.4 14.006 13.13 18.449 5.73 4.379 12.75 6.568 21.06 6.568 8.63 0 15.84-2.286 21.64-6.858 5.79-4.636 10.17-10.915 13.13-18.835 3.03-7.921 4.54-16.839 4.54-26.756 0-9.788-1.48-18.577-4.44-26.369-2.9-7.792-7.28-13.941-13.14-18.449-5.79-4.508-13.04-6.761-21.73-6.761-8.37 0-15.45 2.157-21.25 6.471-5.73 4.315-10.08 10.335-13.04 18.063-2.96 7.727-4.44 16.742-4.44 27.045Zm259.95-121.27v116.296c0 10.805 2.46 19.146 7.39 25.022 5.12 5.877 12.79 8.815 23.03 8.815 10.24 0 17.91-2.938 23.03-8.815 5.31-6.066 7.96-14.406 7.96-25.022V158.548h55.74v116.296c0 18.388-3.89 34.121-11.66 47.201-7.77 12.89-18.39 22.653-31.85 29.287-13.27 6.445-28.05 9.668-44.36 9.668-16.3 0-30.89-3.223-43.79-9.668-12.7-6.634-22.74-16.397-30.14-29.287-7.2-12.89-10.8-28.624-10.8-47.201V158.548h55.45Zm203.56 58.218V357.01h-55.73V216.766h55.73Z"/>
  <path fill="#fff" fill-rule="evenodd" d="M1950.98 153.122a85.85 85.85 0 0 0 25.3-16.331c9.35-8.996 15.44-23.791 15.44-23.791l5.83.314s3.82 16.413 13.33 27.155a87.29 87.29 0 0 0 22.05 17.247l-.92 6.225a61.776 61.776 0 0 0-23.95 15.025c-10.36 10.49-14.98 25.759-14.98 25.759l-5.97.275s-3.97-15.157-12.93-26.894c-7.54-9.835-23.25-18.697-23.25-18.697l.05-6.287Z" clip-rule="evenodd"/>
</svg>
