<svg xmlns="http://www.w3.org/2000/svg" width="2080" height="512" fill="none" viewBox="0 0 2080 512">
  <path fill="#000" d="M0 192C0 124.794 0 91.19 13.08 65.521A120 120 0 0 1 65.52 13.08C91.191 0 124.794 0 192 0h128c67.206 0 100.809 0 126.479 13.08a120.004 120.004 0 0 1 52.442 52.441C512 91.191 512 124.794 512 192v128c0 67.206 0 100.809-13.079 126.479a120.007 120.007 0 0 1-52.442 52.442C420.809 512 387.206 512 320 512H192c-67.206 0-100.81 0-126.479-13.079a120.004 120.004 0 0 1-52.442-52.442C0 420.809 0 387.206 0 320V192Z"/>
  <path fill="#fff" fill-rule="evenodd" d="M409.159 287.986a325.056 325.056 0 0 0-99.722 54.694C271.791 374.017 244.978 428 244.978 428l-21.919-2.716s-10.165-62.674-43.294-105.543A330.695 330.695 0 0 0 101 249.128l5.061-23.148a233.815 233.815 0 0 0 94.326-50.139C242.217 139.156 263.592 83 263.592 83l22.63.543s11.043 57.995 41.83 104.457C353.986 226.942 411 264.379 411 264.379l-1.841 23.607Z" clip-rule="evenodd"/>
  <path fill="#000" d="M674.511 354V156.182h74.182c15.197 0 27.947 2.833 38.25 8.5 10.368 5.666 18.191 13.458 23.472 23.375 5.344 9.852 8.017 21.057 8.017 33.613 0 12.686-2.673 23.955-8.017 33.807-5.345 9.853-13.233 17.612-23.665 23.279-10.432 5.602-23.278 8.403-38.54 8.403h-49.165v-29.46h44.336c8.886 0 16.163-1.546 21.829-4.637 5.667-3.09 9.853-7.34 12.557-12.75 2.769-5.409 4.153-11.623 4.153-18.642 0-7.018-1.384-13.2-4.153-18.545-2.704-5.345-6.922-9.498-12.653-12.46-5.667-3.027-12.976-4.54-21.926-4.54h-32.841V354h-35.836Zm236.093 2.898c-14.489 0-27.046-3.188-37.671-9.563s-18.867-15.293-24.727-26.755c-5.795-11.463-8.693-24.857-8.693-40.182 0-15.326 2.898-28.752 8.693-40.279 5.86-11.526 14.102-20.477 24.727-26.852s23.182-9.562 37.671-9.562c14.488 0 27.045 3.187 37.67 9.562s18.835 15.326 24.631 26.852c5.86 11.527 8.79 24.953 8.79 40.279 0 15.325-2.93 28.719-8.79 40.182-5.796 11.462-14.006 20.38-24.631 26.755s-23.182 9.563-37.67 9.563Zm.193-28.012c7.856 0 14.424-2.157 19.704-6.471 5.281-4.379 9.209-10.239 11.785-17.58 2.64-7.341 3.96-15.519 3.96-24.534 0-9.079-1.32-17.29-3.96-24.631-2.576-7.405-6.504-13.297-11.785-17.676-5.28-4.378-11.848-6.568-19.704-6.568-8.049 0-14.746 2.19-20.091 6.568-5.28 4.379-9.241 10.271-11.881 17.676-2.575 7.341-3.863 15.552-3.863 24.631 0 9.015 1.288 17.193 3.863 24.534 2.64 7.341 6.601 13.201 11.881 17.58 5.345 4.314 12.042 6.471 20.091 6.471Zm100.573 80.75v-204h34.39v24.534h2.03c1.8-3.606 4.34-7.437 7.63-11.494 3.28-4.121 7.72-7.631 13.33-10.528 5.6-2.962 12.75-4.443 21.44-4.443 11.46 0 21.8 2.929 31.01 8.789 9.27 5.796 16.61 14.392 22.02 25.79 5.47 11.333 8.21 25.243 8.21 41.727 0 16.292-2.67 30.137-8.02 41.534-5.34 11.398-12.62 20.091-21.83 26.08-9.21 5.989-19.64 8.983-31.29 8.983-8.5 0-15.55-1.417-21.16-4.25-5.6-2.833-10.11-6.246-13.52-10.239-3.35-4.057-5.96-7.888-7.82-11.494h-1.45v79.011h-34.97Zm34.29-129.818c0 9.595 1.35 17.998 4.06 25.21 2.77 7.213 6.73 12.847 11.88 16.904 5.22 3.992 11.53 5.988 18.93 5.988 7.73 0 14.2-2.06 19.42-6.181 5.21-4.186 9.14-9.885 11.78-17.097 2.7-7.276 4.06-15.551 4.06-24.824 0-9.208-1.32-17.386-3.96-24.534-2.64-7.148-6.57-12.75-11.79-16.807-5.21-4.057-11.72-6.085-19.51-6.085-7.47 0-13.81 1.964-19.03 5.892-5.21 3.928-9.17 9.434-11.88 16.517-2.64 7.083-3.96 15.422-3.96 25.017ZM1199.02 354h-38.25l69.65-197.818h44.23L1344.39 354h-38.25l-52.83-157.25h-1.55L1199.02 354Zm1.26-77.562h104.32v28.784h-104.32v-28.784Zm168.62 133.198v-204h34.39v24.534h2.03c1.8-3.606 4.34-7.437 7.63-11.494 3.28-4.121 7.73-7.631 13.33-10.528 5.6-2.962 12.75-4.443 21.44-4.443 11.46 0 21.8 2.929 31.01 8.789 9.27 5.796 16.61 14.392 22.02 25.79 5.47 11.333 8.21 25.243 8.21 41.727 0 16.292-2.67 30.137-8.02 41.534-5.34 11.398-12.62 20.091-21.83 26.08-9.2 5.989-19.64 8.983-31.29 8.983-8.5 0-15.55-1.417-21.16-4.25-5.6-2.833-10.11-6.246-13.52-10.239-3.35-4.057-5.95-7.888-7.82-11.494h-1.45v79.011h-34.97Zm34.29-129.818c0 9.595 1.36 17.998 4.06 25.21 2.77 7.213 6.73 12.847 11.88 16.904 5.22 3.992 11.53 5.988 18.93 5.988 7.73 0 14.2-2.06 19.42-6.181 5.21-4.186 9.14-9.885 11.78-17.097 2.71-7.276 4.06-15.551 4.06-24.824 0-9.208-1.32-17.386-3.96-24.534-2.64-7.148-6.57-12.75-11.79-16.807-5.21-4.057-11.72-6.085-19.51-6.085-7.47 0-13.81 1.964-19.03 5.892-5.21 3.928-9.17 9.434-11.88 16.517-2.64 7.083-3.96 15.422-3.96 25.017Zm135.71 129.818v-204h34.39v24.534h2.03c1.8-3.606 4.34-7.437 7.63-11.494 3.28-4.121 7.73-7.631 13.33-10.528 5.6-2.962 12.75-4.443 21.44-4.443 11.46 0 21.8 2.929 31.01 8.789 9.27 5.796 16.61 14.392 22.02 25.79 5.47 11.333 8.21 25.243 8.21 41.727 0 16.292-2.67 30.137-8.02 41.534-5.34 11.398-12.62 20.091-21.83 26.08-9.2 5.989-19.64 8.983-31.29 8.983-8.5 0-15.55-1.417-21.16-4.25-5.6-2.833-10.11-6.246-13.52-10.239-3.35-4.057-5.95-7.888-7.82-11.494h-1.45v79.011h-34.97Zm34.29-129.818c0 9.595 1.36 17.998 4.06 25.21 2.77 7.213 6.73 12.847 11.88 16.904 5.22 3.992 11.53 5.988 18.93 5.988 7.73 0 14.2-2.06 19.42-6.181 5.21-4.186 9.14-9.885 11.78-17.097 2.71-7.276 4.06-15.551 4.06-24.824 0-9.208-1.32-17.386-3.96-24.534-2.64-7.148-6.57-12.75-11.79-16.807-5.21-4.057-11.72-6.085-19.51-6.085-7.47 0-13.81 1.964-19.03 5.892-5.21 3.928-9.17 9.434-11.88 16.517-2.64 7.083-3.96 15.422-3.96 25.017Zm244.47-125.27v116.296c0 10.805 2.46 19.146 7.39 25.022 5.12 5.877 12.8 8.815 23.03 8.815 10.24 0 17.92-2.938 23.04-8.815 5.3-6.066 7.96-14.406 7.96-25.022V154.548h55.73v116.296c0 18.388-3.89 34.121-11.66 47.201-7.77 12.89-18.39 22.653-31.85 29.287-13.27 6.445-28.05 9.668-44.35 9.668-16.31 0-30.9-3.223-43.79-9.668-12.7-6.634-22.75-16.397-30.14-29.287-7.21-12.89-10.81-28.624-10.81-47.201V154.548h55.45Zm203.56 58.218V353.01h-55.73V212.766h55.73Z"/>
  <path fill="#000" fill-rule="evenodd" d="M1953.06 149.122a85.932 85.932 0 0 0 25.29-16.331c9.36-8.996 15.44-23.791 15.44-23.791l5.83.314s3.82 16.413 13.33 27.155a87.466 87.466 0 0 0 22.05 17.247l-.91 6.225a61.812 61.812 0 0 0-23.96 15.025c-10.36 10.49-14.97 25.759-14.97 25.759l-5.98.275s-3.96-15.157-12.92-26.894c-7.55-9.835-23.26-18.697-23.26-18.697l.06-6.287Z" clip-rule="evenodd"/>
</svg>
